<svg id="Layer_1" data-name="Layer 1" xmlns="http://www.w3.org/2000/svg" xmlns:xlink="http://www.w3.org/1999/xlink" viewBox="0 0 1350.36 1965.99"><defs><style>.cls-1{stroke:#fff3e0;stroke-miterlimit:10;fill:url(#linear-gradient);}.cls-2{fill:#ccc0ae;}.cls-3{fill:url(#linear-gradient-2);}.cls-4{fill:#14213d;}.cls-5{fill:url(#linear-gradient-3);}</style><linearGradient id="linear-gradient" x1="456.36" y1="1017.6" x2="1656.75" y2="1063.15" gradientUnits="userSpaceOnUse"><stop offset="0" stop-color="#fff3e0"/><stop offset="0.99" stop-color="#fff3e0"/></linearGradient><linearGradient id="linear-gradient-2" x1="1284.76" y1="1152.38" x2="1284.88" y2="1152.38" gradientTransform="translate(2193.26 -315.09) rotate(79.87)" gradientUnits="userSpaceOnUse"><stop offset="0" stop-color="#8e0000"/><stop offset="0.15" stop-color="#970707"/><stop offset="0.39" stop-color="#b11919"/><stop offset="0.55" stop-color="#c62828"/><stop offset="0.87" stop-color="#d32f2f"/><stop offset="0.99" stop-color="#9a0007"/></linearGradient><linearGradient id="linear-gradient-3" x1="846.33" y1="1006.08" x2="1322.32" y2="1006.08" gradientTransform="matrix(1, 0, 0, 1, 0, 0)" xlink:href="#linear-gradient-2"/></defs><title>LOGO2-2048</title><path class="cls-1" d="M1625.28,1892.26c-5.18-5.92-8.23-14.21-10.11-21.9a170.17,170.17,0,0,1-4-26.35c-3.82-7.83-7.15-15.87-10.25-24.12a534.84,534.84,0,0,1-22.34-78.67q-.81-3.84-1.54-7.7a118.05,118.05,0,0,1-5.73-12.92c-5-13-8.14-26.51-12.08-39.81s-5.43-26.77-2.66-40.43c-4.38-4.11-7.58-10.25-9.52-14.85-4.93-11.68-7.47-24.32-9-36.92q-5.19-1.08-10.45-2.15L1118.54,119.9l-189,0L522.6,1588.37q-11.93,2.48-23.46,5.08c-2.2,13.88-6.41,27.59-10.6,40.76-7.08,22.2-14.57,43.89-19.17,66.77-5.56,27.61-14.33,54.4-22.39,81.34-3.5,11.7-7.56,23.52-9.27,35.63-1.27,9-2,18.07-3.14,27.09-1.69,13.7-3,31.77-11.28,44,21.55,6.32,44.58,12.3,68.91,17.9L765.79,911,754.1,962.49,569.44,1922.74c37.14,6.66,76.53,12.54,117.83,17.54L942.71,531.62,709.54,1942.88c63.56,7.1,131.35,12.14,202.11,14.83l2.1-38.74,3.44-76.55.72,0,26.45-487.23-22.25,602.87q52.85,1.8,107.7,1.84,39.7,0,78.46-1l-2.83-166.83,7.83,166.71c44.83-1.19,88.58-3.33,130.94-6.34l-71.09-711.37,99,709.25c62.13-5,121-12,175.67-20.52l-90.58-452.06,99.12,450.7q15.46-2.49,30.44-5.15L1247.6,725l309.45,1184.33Q1593.07,1901.33,1625.28,1892.26Z" transform="translate(-348.82 -41.01)"/><path class="cls-2" d="M1120.58,235.59c-18.85,21.41-77.85-22.25-126.11,10.6-3.46,2.35-14.79,10.5-28.61,35-50.7,89.78-7.53,173.85-45.57,201.34-21.06,15.23-59.69,7.81-81.6-10.59-66.47-55.86-31-256.66,84.78-338,16.88-11.88,68.9-48.45,121.87-30.73C1109,124.42,1140.56,212.9,1120.58,235.59Z" transform="translate(-348.82 -41.01)"/><rect class="cls-3" x="1284.5" y="1152.38" width="0.65" transform="matrix(0.18, -0.98, 0.98, 0.18, -424.4, 2173.49)"/><path class="cls-4" d="M1673.51,1989.12l-62.29,16.69a34.62,34.62,0,0,1-42.4-24.48l-483-1802.76a47.56,47.56,0,0,0-5.45-10.54h0a48.7,48.7,0,0,0-34.54-16.94h-39.69c-.45,0-.91,0-1.36,0l-1.46,0A48.68,48.68,0,0,0,967.79,168,48,48,0,0,0,962,179.37l-482.83,1802a34.62,34.62,0,0,1-42.4,24.48l-62.29-16.69a34.62,34.62,0,0,1-24.48-42.4Q400.32,1759,450.62,1571.24,649,830.9,847.36,90.58C874.49,49,898.06,41.44,913,41H1145.6a55,55,0,0,1,53.62,42.63h0l.25,1.11,2.31,10.13L1698,1946.72A34.62,34.62,0,0,1,1673.51,1989.12Z" transform="translate(-348.82 -41.01)"/><path class="cls-5" d="M943.79,1090.26c49.2,9,49.48,7.38,98.69,16.43,34.45,6.34,44.64,9.06,64.55,13.23l81.28,14.52c12.93,1.93,25.29,3.74,51,8.46,16.5,3,27.43,5.24,36.53,7.17l10,1.78-4.57-4.58L1120,1011.41l198.25-71.65,4-1.87c-21.88-4.09-30.34-6.36-51-10.28l-27.87-5c-39.62-6.72-41.94-5.57-85.51-13.12-45.75-7.92-45.48-9.6-91.23-17.53s-46-6.25-91.78-14.18-45.49-9.6-91-17.5l-37.57,210.3C894.86,1079.55,894.81,1081.24,943.79,1090.26Z" transform="translate(-348.82 -41.01)"/></svg>